<?xml version="1.0" standalone="no"?>
<!DOCTYPE svg PUBLIC "-//W3C//DTD SVG 20010904//EN"
 "http://www.w3.org/TR/2001/REC-SVG-20010904/DTD/svg10.dtd">
<svg version="1.0" xmlns="http://www.w3.org/2000/svg"
 width="854.000000pt" height="1657.000000pt" viewBox="0 0 854.000000 1657.000000"
 preserveAspectRatio="xMidYMid meet">

<g transform="translate(0.000000,1657.000000) scale(0.100000,-0.100000)"
fill="#000000" stroke="none">
<path d="M3020 16565 c0 -2 44 -38 98 -78 300 -228 504 -470 662 -789 165
-333 245 -678 270 -1158 6 -123 10 -1794 10 -4543 l0 -4347 278 2 277 3 0
4480 c0 4243 -1 4487 -18 4610 -79 577 -260 968 -595 1286 -221 209 -500 372
-849 493 -73 25 -133 44 -133 41z"/>
<path d="M3480 16565 c0 -2 71 -40 158 -84 503 -255 814 -553 1017 -975 141
-292 213 -588 235 -973 6 -104 10 -1823 10 -4526 l0 -4357 278 2 277 3 3 4365
c2 3001 0 4414 -8 4521 -69 1012 -582 1669 -1510 1933 -158 45 -460 105 -460
91z"/>
<path d="M2738 16476 c246 -306 393 -801 452 -1516 27 -329 30 -805 30 -4973
l0 -4337 278 2 277 3 0 4495 c0 4253 -1 4503 -18 4650 -94 816 -377 1334 -912
1667 -77 48 -159 93 -169 93 -3 0 25 -38 62 -84z"/>
<path d="M143 10123 c3 -4292 -1 -3955 57 -4244 27 -134 105 -368 163 -489
258 -537 720 -893 1377 -1060 119 -30 328 -70 364 -70 12 1 -55 40 -149 88
-196 101 -301 165 -429 262 -437 330 -702 797 -790 1395 -35 238 -36 333 -36
4207 l0 3838 -280 0 -280 0 3 -3927z"/>
<path d="M983 10113 c3 -3669 4 -3946 20 -4056 135 -921 564 -1443 1450 -1759
60 -21 114 -37 118 -36 5 2 -38 38 -96 82 -574 427 -870 1031 -925 1881 -6
104 -10 1494 -10 3992 l0 3833 -280 0 -280 0 3 -3937z"/>
<path d="M1820 10173 c0 -2575 4 -3925 10 -4018 64 -859 348 -1421 900 -1780
93 -61 200 -120 200 -111 0 3 -23 31 -50 62 -246 281 -403 772 -465 1454 -33
369 -35 594 -35 4433 l0 3837 -280 0 -280 0 0 -3877z"/>
<path d="M6297 10123 c-3 -2872 -7 -3971 -16 -4088 -44 -610 -126 -1023 -265
-1344 -65 -150 -160 -304 -239 -388 -37 -40 -32 -41 34 -7 196 99 417 279 557
453 299 371 445 822 482 1486 6 114 10 1589 10 3998 l0 3817 -280 0 -279 0 -4
-3927z"/>
<path d="M7140 10298 c0 -3753 -3 -4071 -35 -4311 -105 -772 -386 -1261 -981
-1704 -28 -21 -28 -21 -4 -16 14 3 86 28 160 55 349 129 623 294 834 505 320
318 484 685 563 1258 16 110 17 451 20 4043 l3 3922 -280 0 -280 0 0 -3752z"/>
<path d="M7980 10308 c0 -2154 -4 -3830 -10 -3948 -14 -322 -49 -524 -131
-774 -108 -329 -266 -585 -505 -816 -178 -173 -337 -283 -609 -422 -93 -48
-162 -87 -153 -88 37 0 291 51 409 84 729 200 1214 635 1427 1281 69 208 106
412 122 678 6 101 10 1576 10 3955 l0 3792 -280 0 -280 0 0 -3742z"/>
<path d="M4402 2629 c-388 -32 -722 -184 -963 -437 -231 -243 -342 -533 -342
-897 0 -171 19 -293 64 -429 239 -715 1033 -1025 2012 -784 l127 32 0 593 c0
581 0 593 -21 650 -29 76 -96 143 -172 172 -54 20 -76 21 -337 21 l-280 0 50
-62 c84 -104 83 -99 88 -615 l4 -452 -29 -8 c-50 -13 -225 -7 -292 10 -325 86
-513 416 -514 902 0 213 26 332 104 485 71 139 183 248 322 314 230 111 543
97 814 -34 56 -28 105 -50 108 -50 3 0 5 112 5 250 l0 249 -82 25 c-117 35
-218 54 -349 66 -128 11 -169 11 -317 -1z"/>
<path d="M620 2574 c0 -3 20 -24 44 -45 24 -22 54 -60 66 -85 46 -94 51 -76
-359 -1283 -204 -602 -371 -1096 -371 -1098 0 -2 107 -2 237 -1 l237 3 101
310 101 310 416 3 416 2 49 -142 c28 -79 76 -221 107 -315 l58 -173 358 0 359
0 -43 123 c-24 67 -202 567 -396 1112 -193 545 -364 1018 -380 1053 -37 80
-117 164 -189 199 l-56 28 -377 3 c-208 2 -378 0 -378 -4z m615 -1077 l140
-412 -279 -3 c-153 -1 -281 -1 -283 2 -6 6 270 836 276 830 4 -3 69 -191 146
-417z"/>
<path d="M6280 2577 c0 -2 18 -24 40 -48 58 -63 80 -115 90 -216 5 -48 10
-575 10 -1170 l0 -1083 335 0 335 0 2 528 3 527 383 3 382 2 0 -530 0 -530
340 0 340 0 0 1255 0 1255 -340 0 -340 0 0 -510 0 -510 -385 0 -385 0 0 385
c0 368 -1 387 -21 442 -26 68 -98 144 -167 176 -44 21 -64 22 -334 25 -159 2
-288 1 -288 -1z"/>
</g>
</svg>
